<!DOCTYPE svg PUBLIC "-//W3C//DTD SVG 1.1//EN" "http://www.w3.org/Graphics/SVG/1.1/DTD/svg11.dtd">
<!-- Uploaded to: SVG Repo, www.svgrepo.com, Transformed by: SVG Repo Mixer Tools -->
<svg width="100px" height="100px" viewBox="-3.2 -3.2 38.40 38.40" enable-background="new 0 0 32 32" version="1.1" xml:space="preserve" xmlns="http://www.w3.org/2000/svg" xmlns:xlink="http://www.w3.org/1999/xlink" fill="#000000" stroke="#000000" stroke-width="1.152" transform="matrix(-1, 0, 0, 1, 0, 0)">
<g id="SVGRepo_bgCarrier" stroke-width="0"/>
<g id="SVGRepo_tracerCarrier" stroke-linecap="round" stroke-linejoin="round" stroke="#CCCCCC" stroke-width="0.32"/>
<g id="SVGRepo_iconCarrier"> <g id="Home"/> <g id="Print"/> <g id="Mail"/> <g id="Camera"/> <g id="Video"/> <g id="Film"/> <g id="Message"/> <g id="Telephone"/> <g id="User"/> <g id="File"/> <g id="Folder"/> <g id="Map"/> <g id="Download"/> <g id="Upload"/> <g id="Video_Recorder"/> <g id="Schedule"/> <g id="Cart"> <path d="M30,1h-4c-0.5,0-0.9,0.4-1,0.8L24,8h-8H2C1.7,8,1.4,8.1,1.2,8.3C1,8.6,1,8.9,1,9.2l2,12 C3.1,21.6,3.5,22,4,22h12h6.9c0.5,0,0.9-0.4,1-0.8l1.9-12l1-6.1H30c0.5,0,1-0.5,1-1S30.5,1,30,1z" fill="#ffffff"/> <g> <circle cx="7" cy="27" fill="#ffffff" r="4"/> </g> <g> <circle cx="20" cy="27" fill="#ffffff" r="4"/> </g> </g> <g id="Setting"/> <g id="Search"/> <g id="Pencils"/> <g id="Group"/> <g id="Record"/> <g id="Headphone"/> <g id="Music_Player"/> <g id="Sound_On"/> <g id="Sound_Off"/> <g id="Lock"/> <g id="Lock_open"/> <g id="Love"/> <g id="Favorite"/> <g id="Film_1_"/> <g id="Music"/> <g id="Puzzle"/> <g id="Turn_Off"/> <g id="Book"/> <g id="Save"/> <g id="Reload"/> <g id="Trash"/> <g id="Tag"/> <g id="Link"/> <g id="Like"/> <g id="Bad"/> <g id="Gallery"/> <g id="Add"/> <g id="Close"/> <g id="Forward"/> <g id="Back"/> <g id="Buy"/> <g id="Mac"/> <g id="Laptop"/> </g>
</svg>