<!DOCTYPE svg PUBLIC "-//W3C//DTD SVG 1.1//EN" "http://www.w3.org/Graphics/SVG/1.1/DTD/svg11.dtd">
<!-- Uploaded to: SVG Repo, www.svgrepo.com, Transformed by: SVG Repo Mixer Tools -->
<svg width="64px" height="64px" viewBox="-0.72 -0.72 25.44 25.44" fill="none" xmlns="http://www.w3.org/2000/svg" transform="rotate(0)matrix(-1, 0, 0, -1, 0, 0)">
<g id="SVGRepo_bgCarrier" stroke-width="0"/>
<g id="SVGRepo_tracerCarrier" stroke-linecap="round" stroke-linejoin="round" stroke="#CCCCCC" stroke-width="1.248"> <path d="M10 12H18M18 12L15.5 9.77778M18 12L15.5 14.2222M18 7.11111V5C18 4.44772 17.5523 4 17 4H7C6.44772 4 6 4.44772 6 5V19C6 19.5523 6.44772 20 7 20H17C17.5523 20 18 19.5523 18 19V16.8889" stroke="#464455" stroke-linecap="round" stroke-linejoin="round"/> </g>
<g id="SVGRepo_iconCarrier"> <path d="M10 12H18M18 12L15.5 9.77778M18 12L15.5 14.2222M18 7.11111V5C18 4.44772 17.5523 4 17 4H7C6.44772 4 6 4.44772 6 5V19C6 19.5523 6.44772 20 7 20H17C17.5523 20 18 19.5523 18 19V16.8889" stroke="#464455" stroke-linecap="round" stroke-linejoin="round"/> </g>
</svg>